<mxfile host="app.diagrams.net" agent="Mozilla/5.0 (Windows NT 10.0; Win64; x64) AppleWebKit/537.36 (KHTML, like Gecko) Chrome/134.0.0.0 Safari/537.36" version="26.1.1">
  <diagram name="Страница — 1" id="4g9D3_qIlDND9gxmFd7Q">
    <mxGraphModel dx="1235" dy="1824" grid="1" gridSize="10" guides="1" tooltips="1" connect="1" arrows="1" fold="1" page="1" pageScale="1" pageWidth="827" pageHeight="1169" math="0" shadow="0">
      <root>
        <mxCell id="0" />
        <mxCell id="1" parent="0" />
        <mxCell id="uBPK8ESi77f3baoTAxZX-2" value="&lt;b&gt;Frontend&lt;/b&gt;&lt;br&gt;&lt;font size=&quot;1&quot;&gt;React.js&lt;/font&gt;" style="html=1;dropTarget=0;whiteSpace=wrap;" vertex="1" parent="1">
          <mxGeometry x="120" y="-1100" width="140" height="60" as="geometry" />
        </mxCell>
        <mxCell id="uBPK8ESi77f3baoTAxZX-3" value="" style="shape=module;jettyWidth=8;jettyHeight=4;" vertex="1" parent="uBPK8ESi77f3baoTAxZX-2">
          <mxGeometry x="1" width="20" height="20" relative="1" as="geometry">
            <mxPoint x="-27" y="7" as="offset" />
          </mxGeometry>
        </mxCell>
        <mxCell id="uBPK8ESi77f3baoTAxZX-4" value="Backend" style="shape=umlFrame;whiteSpace=wrap;html=1;pointerEvents=0;" vertex="1" parent="1">
          <mxGeometry x="120" y="-980" width="510" height="350" as="geometry" />
        </mxCell>
        <mxCell id="uBPK8ESi77f3baoTAxZX-9" value="&lt;font style=&quot;font-size: 9px;&quot;&gt;HTTP-запросы (GET, POST, PUT, DELETE)&lt;/font&gt;" style="html=1;verticalAlign=bottom;endArrow=block;curved=0;rounded=0;exitX=0.466;exitY=1.028;exitDx=0;exitDy=0;exitPerimeter=0;entryX=0.306;entryY=-0.014;entryDx=0;entryDy=0;entryPerimeter=0;" edge="1" parent="1" source="uBPK8ESi77f3baoTAxZX-2" target="uBPK8ESi77f3baoTAxZX-42">
          <mxGeometry width="80" relative="1" as="geometry">
            <mxPoint x="66" y="-940" as="sourcePoint" />
            <mxPoint x="208.11000000000013" y="-937.92" as="targetPoint" />
          </mxGeometry>
        </mxCell>
        <mxCell id="uBPK8ESi77f3baoTAxZX-12" value="PostgreSQL" style="shape=cylinder3;whiteSpace=wrap;html=1;boundedLbl=1;backgroundOutline=1;size=15;" vertex="1" parent="1">
          <mxGeometry x="520" y="-750" width="90" height="100" as="geometry" />
        </mxCell>
        <mxCell id="uBPK8ESi77f3baoTAxZX-14" value="«interface»&lt;br&gt;&lt;b&gt;RabbitMQ&lt;/b&gt;" style="html=1;whiteSpace=wrap;" vertex="1" parent="1">
          <mxGeometry x="190" y="-725" width="110" height="50" as="geometry" />
        </mxCell>
        <mxCell id="uBPK8ESi77f3baoTAxZX-19" value="" style="html=1;verticalAlign=bottom;endArrow=open;dashed=1;endSize=8;curved=0;rounded=0;entryX=0.111;entryY=1.019;entryDx=0;entryDy=0;entryPerimeter=0;exitX=0.091;exitY=0;exitDx=0;exitDy=0;exitPerimeter=0;" edge="1" parent="1" source="uBPK8ESi77f3baoTAxZX-14" target="uBPK8ESi77f3baoTAxZX-42">
          <mxGeometry relative="1" as="geometry">
            <mxPoint x="280" y="-811" as="sourcePoint" />
            <mxPoint x="280.02" y="-860" as="targetPoint" />
          </mxGeometry>
        </mxCell>
        <mxCell id="uBPK8ESi77f3baoTAxZX-21" value="&lt;hr&gt;" style="edgeLabel;html=1;align=center;verticalAlign=middle;resizable=0;points=[];rotation=90;" vertex="1" connectable="0" parent="uBPK8ESi77f3baoTAxZX-19">
          <mxGeometry x="-0.0372" y="-2" relative="1" as="geometry">
            <mxPoint as="offset" />
          </mxGeometry>
        </mxCell>
        <mxCell id="uBPK8ESi77f3baoTAxZX-22" value="&lt;font style=&quot;font-size: 8px;&quot;&gt;Достать запрос&lt;/font&gt;" style="edgeLabel;html=1;align=center;verticalAlign=middle;resizable=0;points=[];rotation=90;" vertex="1" connectable="0" parent="uBPK8ESi77f3baoTAxZX-19">
          <mxGeometry x="-0.0374" y="-1" relative="1" as="geometry">
            <mxPoint x="-11" y="-2" as="offset" />
          </mxGeometry>
        </mxCell>
        <mxCell id="uBPK8ESi77f3baoTAxZX-29" value="" style="html=1;verticalAlign=bottom;endArrow=block;curved=0;rounded=0;exitX=0.247;exitY=1.005;exitDx=0;exitDy=0;exitPerimeter=0;entryX=0.623;entryY=-0.035;entryDx=0;entryDy=0;entryPerimeter=0;" edge="1" parent="1" source="uBPK8ESi77f3baoTAxZX-42" target="uBPK8ESi77f3baoTAxZX-14">
          <mxGeometry width="80" relative="1" as="geometry">
            <mxPoint x="319.97" y="-860.4" as="sourcePoint" />
            <mxPoint x="313" y="-810" as="targetPoint" />
          </mxGeometry>
        </mxCell>
        <mxCell id="uBPK8ESi77f3baoTAxZX-31" value="&lt;span style=&quot;font-size: 8px; text-wrap-mode: nowrap; background-color: rgb(255, 255, 255);&quot;&gt;Положить запрос&lt;/span&gt;" style="text;html=1;align=center;verticalAlign=middle;whiteSpace=wrap;rounded=0;rotation=90;" vertex="1" parent="1">
          <mxGeometry x="240" y="-790" width="60" height="30" as="geometry" />
        </mxCell>
        <mxCell id="uBPK8ESi77f3baoTAxZX-42" value="&lt;font style=&quot;font-size: 10px;&quot;&gt;REST API (FastAPI)&lt;/font&gt;" style="shape=umlFrame;whiteSpace=wrap;html=1;pointerEvents=0;" vertex="1" parent="1">
          <mxGeometry x="150" y="-930" width="440" height="110" as="geometry" />
        </mxCell>
        <mxCell id="uBPK8ESi77f3baoTAxZX-43" value="&lt;font style=&quot;font-size: 10px;&quot;&gt;&amp;nbsp; &amp;nbsp;Документы&lt;/font&gt;" style="html=1;dropTarget=0;whiteSpace=wrap;align=left;" vertex="1" parent="1">
          <mxGeometry x="160" y="-890" width="90" height="40" as="geometry" />
        </mxCell>
        <mxCell id="uBPK8ESi77f3baoTAxZX-44" value="" style="shape=module;jettyWidth=8;jettyHeight=4;" vertex="1" parent="uBPK8ESi77f3baoTAxZX-43">
          <mxGeometry x="1" width="19" height="20" relative="1" as="geometry">
            <mxPoint x="-27" y="10" as="offset" />
          </mxGeometry>
        </mxCell>
        <mxCell id="uBPK8ESi77f3baoTAxZX-45" value="&lt;span style=&quot;font-weight: normal;&quot;&gt;&lt;font style=&quot;font-size: 10px;&quot;&gt;&amp;nbsp; Асинхронные задачи&lt;/font&gt;&lt;/span&gt;" style="html=1;dropTarget=0;whiteSpace=wrap;fontStyle=1;align=left;" vertex="1" parent="1">
          <mxGeometry x="280" y="-890" width="140" height="40" as="geometry" />
        </mxCell>
        <mxCell id="uBPK8ESi77f3baoTAxZX-46" value="" style="shape=module;jettyWidth=8;jettyHeight=4;" vertex="1" parent="uBPK8ESi77f3baoTAxZX-45">
          <mxGeometry x="1" width="20" height="20" relative="1" as="geometry">
            <mxPoint x="-27" y="7" as="offset" />
          </mxGeometry>
        </mxCell>
        <mxCell id="uBPK8ESi77f3baoTAxZX-47" value="&lt;span style=&quot;font-weight: normal;&quot;&gt;&lt;font style=&quot;font-size: 10px;&quot;&gt;&amp;nbsp; &amp;nbsp; &amp;nbsp; &amp;nbsp;Тэги&lt;/font&gt;&lt;/span&gt;" style="html=1;dropTarget=0;whiteSpace=wrap;fontStyle=1;align=left;" vertex="1" parent="1">
          <mxGeometry x="460" y="-890" width="80" height="40" as="geometry" />
        </mxCell>
        <mxCell id="uBPK8ESi77f3baoTAxZX-48" value="" style="shape=module;jettyWidth=8;jettyHeight=4;" vertex="1" parent="uBPK8ESi77f3baoTAxZX-47">
          <mxGeometry x="1" width="20" height="20" relative="1" as="geometry">
            <mxPoint x="-27" y="7" as="offset" />
          </mxGeometry>
        </mxCell>
        <mxCell id="uBPK8ESi77f3baoTAxZX-49" value="&lt;font style=&quot;font-size: 8px;&quot;&gt;CRUD&lt;br&gt;операции&lt;/font&gt;" style="html=1;verticalAlign=bottom;endArrow=block;curved=0;rounded=0;exitX=0.5;exitY=1;exitDx=0;exitDy=0;entryX=0.5;entryY=0;entryDx=0;entryDy=0;entryPerimeter=0;" edge="1" parent="1" source="uBPK8ESi77f3baoTAxZX-47" target="uBPK8ESi77f3baoTAxZX-12">
          <mxGeometry width="80" relative="1" as="geometry">
            <mxPoint x="570" y="-740" as="sourcePoint" />
            <mxPoint x="650" y="-740" as="targetPoint" />
          </mxGeometry>
        </mxCell>
        <mxCell id="uBPK8ESi77f3baoTAxZX-53" value="&lt;font style=&quot;font-size: 8px;&quot;&gt;CRUD&lt;br&gt;операции&lt;/font&gt;" style="html=1;verticalAlign=bottom;endArrow=block;curved=0;rounded=0;exitX=0.5;exitY=1;exitDx=0;exitDy=0;entryX=0.5;entryY=0;entryDx=0;entryDy=0;entryPerimeter=0;" edge="1" parent="1" source="uBPK8ESi77f3baoTAxZX-45" target="uBPK8ESi77f3baoTAxZX-12">
          <mxGeometry width="80" relative="1" as="geometry">
            <mxPoint x="395" y="-820" as="sourcePoint" />
            <mxPoint x="460" y="-720" as="targetPoint" />
          </mxGeometry>
        </mxCell>
        <mxCell id="uBPK8ESi77f3baoTAxZX-54" value="&lt;font style=&quot;font-size: 8px;&quot;&gt;CRUD&lt;br&gt;операции&lt;/font&gt;" style="html=1;verticalAlign=bottom;endArrow=block;curved=0;rounded=0;exitX=0.5;exitY=1;exitDx=0;exitDy=0;entryX=0.5;entryY=0;entryDx=0;entryDy=0;entryPerimeter=0;" edge="1" parent="1" source="uBPK8ESi77f3baoTAxZX-43" target="uBPK8ESi77f3baoTAxZX-12">
          <mxGeometry x="0.0544" y="-18" width="80" relative="1" as="geometry">
            <mxPoint x="342.5" y="-810" as="sourcePoint" />
            <mxPoint x="407.5" y="-710" as="targetPoint" />
            <mxPoint as="offset" />
          </mxGeometry>
        </mxCell>
        <mxCell id="uBPK8ESi77f3baoTAxZX-61" value="&lt;b&gt;&lt;font style=&quot;font-size: 8px;&quot;&gt;Документы:&lt;/font&gt;&lt;/b&gt;&lt;div&gt;&lt;div style=&quot;&quot;&gt;&lt;font style=&quot;font-size: 8px;&quot;&gt;&amp;nbsp; - GET /documents → Получить список документов&lt;/font&gt;&lt;/div&gt;&lt;div style=&quot;&quot;&gt;&lt;font style=&quot;font-size: 8px;&quot;&gt;&amp;nbsp; - GET /documents/{id} → Получить документ по ID&lt;/font&gt;&lt;/div&gt;&lt;div style=&quot;&quot;&gt;&lt;font style=&quot;font-size: 8px;&quot;&gt;&amp;nbsp; - POST /documents/create → Создать документ&lt;/font&gt;&lt;/div&gt;&lt;div style=&quot;&quot;&gt;&lt;font style=&quot;font-size: 8px;&quot;&gt;&amp;nbsp; - POST /documents/upload → Загрузить документ (асинхронно)&lt;/font&gt;&lt;/div&gt;&lt;div style=&quot;&quot;&gt;&lt;font style=&quot;font-size: 8px;&quot;&gt;&amp;nbsp; - PATCH /documents/{id} → Частично обновить документ&lt;/font&gt;&lt;/div&gt;&lt;div style=&quot;&quot;&gt;&lt;font style=&quot;font-size: 8px;&quot;&gt;&amp;nbsp; - PUT /documents/{id} → Полностью обновить документ&lt;/font&gt;&lt;/div&gt;&lt;div style=&quot;&quot;&gt;&lt;font style=&quot;font-size: 8px;&quot;&gt;&amp;nbsp; - DELETE /documents/{id} → Удалить документ&lt;/font&gt;&lt;/div&gt;&lt;/div&gt;" style="shape=note;size=20;whiteSpace=wrap;html=1;align=left;" vertex="1" parent="1">
          <mxGeometry x="120" y="-600" width="250" height="130" as="geometry" />
        </mxCell>
        <mxCell id="uBPK8ESi77f3baoTAxZX-67" value="" style="curved=1;endArrow=classic;html=1;rounded=0;exitX=0;exitY=0.5;exitDx=0;exitDy=0;entryX=0.079;entryY=0;entryDx=0;entryDy=0;entryPerimeter=0;" edge="1" parent="1" source="uBPK8ESi77f3baoTAxZX-43" target="uBPK8ESi77f3baoTAxZX-61">
          <mxGeometry width="50" height="50" relative="1" as="geometry">
            <mxPoint x="70" y="-690" as="sourcePoint" />
            <mxPoint x="20" y="-640" as="targetPoint" />
            <Array as="points">
              <mxPoint x="50" y="-820" />
              <mxPoint x="20" y="-710" />
              <mxPoint x="30" y="-680" />
              <mxPoint x="80" y="-630" />
            </Array>
          </mxGeometry>
        </mxCell>
        <mxCell id="uBPK8ESi77f3baoTAxZX-68" value="&lt;div&gt;&lt;b&gt;&lt;font style=&quot;font-size: 8px;&quot;&gt;Асинхронные задачи:&lt;/font&gt;&lt;/b&gt;&lt;/div&gt;&lt;div&gt;&lt;font style=&quot;font-size: 8px;&quot;&gt;&amp;nbsp; - GET /tasks/{id} → Получить статус задачи&lt;/font&gt;&lt;/div&gt;&lt;div&gt;&lt;font style=&quot;font-size: 8px;&quot;&gt;&amp;nbsp; - GET /tasks → Получить статусы всех задач&lt;/font&gt;&lt;/div&gt;&lt;div&gt;&lt;font style=&quot;font-size: 8px;&quot;&gt;&amp;nbsp; - DELETE /tasks/{id} → Удалить задачу&lt;/font&gt;&lt;/div&gt;" style="shape=note;size=20;whiteSpace=wrap;html=1;align=left;" vertex="1" parent="1">
          <mxGeometry x="380" y="-600" width="230" height="130" as="geometry" />
        </mxCell>
        <mxCell id="uBPK8ESi77f3baoTAxZX-69" value="" style="curved=1;endArrow=classic;html=1;rounded=0;exitX=0.357;exitY=1;exitDx=0;exitDy=0;exitPerimeter=0;entryX=0.096;entryY=0.011;entryDx=0;entryDy=0;entryPerimeter=0;" edge="1" parent="1" source="uBPK8ESi77f3baoTAxZX-45" target="uBPK8ESi77f3baoTAxZX-68">
          <mxGeometry width="50" height="50" relative="1" as="geometry">
            <mxPoint x="380" y="-740" as="sourcePoint" />
            <mxPoint x="330" y="-690" as="targetPoint" />
            <Array as="points">
              <mxPoint x="330" y="-740" />
              <mxPoint x="340" y="-680" />
            </Array>
          </mxGeometry>
        </mxCell>
        <mxCell id="uBPK8ESi77f3baoTAxZX-70" value="&lt;div&gt;&lt;font style=&quot;font-size: 8px;&quot;&gt;&lt;b&gt;Теги&lt;/b&gt;:&lt;/font&gt;&lt;/div&gt;&lt;div&gt;&lt;font style=&quot;font-size: 8px;&quot;&gt;&amp;nbsp; - GET /tags → Получить все теги&lt;/font&gt;&lt;/div&gt;&lt;div&gt;&lt;font style=&quot;font-size: 8px;&quot;&gt;&amp;nbsp; - GET /tags/{id} → Получить тег по ID&lt;/font&gt;&lt;/div&gt;&lt;div&gt;&lt;font style=&quot;font-size: 8px;&quot;&gt;&amp;nbsp; - POST /tags/create → Создать тег&lt;/font&gt;&lt;/div&gt;&lt;div&gt;&lt;font style=&quot;font-size: 8px;&quot;&gt;&amp;nbsp; - DELETE /tags/{id} → Удалить тег&lt;/font&gt;&lt;/div&gt;" style="shape=note;size=20;whiteSpace=wrap;html=1;align=left;" vertex="1" parent="1">
          <mxGeometry x="620" y="-600" width="180" height="130" as="geometry" />
        </mxCell>
        <mxCell id="uBPK8ESi77f3baoTAxZX-71" value="" style="curved=1;endArrow=classic;html=1;rounded=0;exitX=1;exitY=0.5;exitDx=0;exitDy=0;entryX=0.639;entryY=0;entryDx=0;entryDy=0;entryPerimeter=0;" edge="1" parent="1" source="uBPK8ESi77f3baoTAxZX-47" target="uBPK8ESi77f3baoTAxZX-70">
          <mxGeometry width="50" height="50" relative="1" as="geometry">
            <mxPoint x="580" y="-740" as="sourcePoint" />
            <mxPoint x="530" y="-690" as="targetPoint" />
            <Array as="points">
              <mxPoint x="720" y="-840" />
              <mxPoint x="770" y="-700" />
            </Array>
          </mxGeometry>
        </mxCell>
      </root>
    </mxGraphModel>
  </diagram>
</mxfile>
